<svg width="32" height="32" viewBox="0 0 32 32" fill="none" xmlns="http://www.w3.org/2000/svg">
<rect width="32" height="32" rx="4" fill="white"/>
<path d="M25.4867 6.70462C25.3245 6.54177 25.1318 6.41258 24.9197 6.32447C24.7073 6.23636 24.4798 6.19112 24.25 6.19128H17.25C16.7861 6.19191 16.3414 6.37648 16.0133 6.70455C15.6853 7.03259 15.5007 7.47735 15.5 7.94128V13.1913H13.75C12.6008 13.191 11.4629 13.4171 10.4012 13.8567C9.33953 14.2963 8.3747 14.9408 7.56223 15.7534C6.74953 16.566 6.10507 17.5307 5.66547 18.5925C5.22587 19.6542 4.99977 20.7921 5 21.9413V27.1914C5 27.4511 5.02893 27.7101 5.08633 27.9637C5.09567 28.0104 5.10733 28.0571 5.12133 28.1037C5.1379 28.1716 5.1582 28.2386 5.182 28.3044C5.20067 28.3581 5.21933 28.4094 5.24033 28.4631C5.26133 28.5167 5.28467 28.5727 5.31033 28.6287C5.336 28.6847 5.38033 28.7781 5.42 28.8621C5.45967 28.9321 5.50167 29.0021 5.54367 29.0674C5.58567 29.1327 5.63467 29.2074 5.68367 29.2727V29.2867C5.728 29.3451 5.77233 29.4011 5.819 29.4547C5.85703 29.5019 5.8974 29.5471 5.94033 29.5901L6.015 29.6671C6.05467 29.7091 6.09667 29.7487 6.141 29.7884L6.22033 29.8561L6.34167 29.9564L6.39533 29.9984L6.56333 30.1174L6.67067 30.1827C6.7052 30.2058 6.7409 30.2268 6.778 30.2457L6.87367 30.2994L6.911 30.3181L6.99967 30.3601C7.06967 30.3951 7.142 30.4254 7.21667 30.4557H7.24L7.338 30.4931C7.46097 30.536 7.5865 30.5719 7.71367 30.6004L7.83967 30.6261C7.8812 30.6352 7.92343 30.6422 7.96567 30.6471H8.01L8.16167 30.6634L8.325 30.6751H8.48833H15.5V28.9251C15.5 28.4607 15.3157 28.0158 14.9874 27.6875C14.6593 27.3594 14.2141 27.1751 13.75 27.1751H12C12.0007 26.7154 11.9102 26.2602 11.734 25.8357C11.5578 25.4111 11.2993 25.0256 10.9733 24.7017L10.873 24.6084L10.6863 24.4451C10.6163 24.3891 10.5417 24.3307 10.453 24.2771L10.2197 24.1347L10.0797 24.0599C10.0283 24.0319 9.977 24.0086 9.92333 23.9853C10.8389 23.7041 11.8024 23.6137 12.7541 23.7198C13.7061 23.826 14.6259 24.1263 15.4571 24.6021C16.2882 25.0781 17.0129 25.7195 17.5862 26.4867C18.1593 27.2539 18.5693 28.1308 18.79 29.0627C19.9331 28.2591 20.8667 27.193 21.5123 25.9538C22.1577 24.7146 22.4965 23.3386 22.5 21.9413V13.1913C23.4282 13.1913 24.3186 12.8225 24.975 12.1662C25.6313 11.5098 26 10.6196 26 9.69128V7.94128C26.0002 7.7115 25.955 7.48393 25.8668 7.27171C25.7788 7.05947 25.6495 6.86674 25.4867 6.70462ZM20.7267 8.75795C20.7348 8.88234 20.7164 9.00703 20.6725 9.1237C20.6287 9.24039 20.5603 9.34637 20.4723 9.43462C20.3482 9.55684 20.1912 9.64025 20.0206 9.67465C19.8498 9.70904 19.6727 9.69294 19.511 9.62828C19.3407 9.55971 19.1972 9.43791 19.1017 9.28106C19.0063 9.12421 18.9641 8.94074 18.9813 8.75795H20.7267Z" fill="#000814"/>
<path d="M20.7803 2.69135H20.7197C19.77 2.69135 19 3.46127 19 4.411V4.47167C19 5.42143 19.77 6.19134 20.7197 6.19134H20.7803C21.73 6.19134 22.5 5.42143 22.5 4.47167V4.411C22.5 3.46127 21.73 2.69135 20.7803 2.69135Z" fill="#FB8500"/>
<path d="M23.0017 2.7053H20.6333C20.6333 2.44298 20.7526 2.19107 20.9658 2.00353C21.1791 1.81599 21.4694 1.70774 21.7743 1.70197C22.0898 1.70114 22.3934 1.805 22.622 1.99189C22.8507 2.17879 22.9867 2.43433 23.0017 2.7053Z" fill="#17AA2B"/>
<path d="M22.311 1.26627L20.6333 2.70333C20.4285 2.50997 20.3186 2.25629 20.3258 1.99501C20.3333 1.73373 20.4576 1.48495 20.673 1.30035C20.8881 1.11416 21.1786 1.00665 21.4838 1.0003C21.7893 0.993947 22.0856 1.08925 22.311 1.26627Z" fill="#1AD33C"/>
</svg>
