<svg width="90" height="129" viewBox="0 0 90 129" fill="none" xmlns="http://www.w3.org/2000/svg">
<path d="M87.8 25.44C87.1052 24.742 86.2793 24.1883 85.3697 23.8108C84.4601 23.4332 83.4848 23.2392 82.5 23.24H52.5C50.5117 23.2426 48.6056 24.0337 47.1996 25.4396C45.7937 26.8456 45.0026 28.7517 45 30.74V53.24H37.5C32.5751 53.2387 27.6981 54.2077 23.1478 56.0918C18.5975 57.9759 14.463 60.7381 10.9806 64.2206C7.49811 67.703 4.73593 71.8375 2.85184 76.3878C0.967757 80.9381 -0.00131251 85.8151 1.33417e-06 90.74V113.24C7.98387e-05 114.354 0.124178 115.464 0.370001 116.55C0.410001 116.75 0.460001 116.95 0.520001 117.15C0.591482 117.441 0.67827 117.728 0.780001 118.01C0.860001 118.24 0.940001 118.46 1.03 118.69C1.12 118.92 1.22 119.16 1.33 119.4C1.44 119.64 1.63 120.04 1.8 120.4C1.97 120.7 2.15 121 2.33 121.28C2.51 121.56 2.72 121.88 2.93 122.16V122.22C3.12 122.47 3.31 122.71 3.51 122.94C3.6727 123.143 3.84629 123.336 4.03 123.52L4.35 123.85C4.52 124.03 4.7 124.2 4.89 124.37L5.23 124.66L5.75 125.09L5.98 125.27L6.7 125.78L7.16 126.06C7.30753 126.16 7.46117 126.25 7.62 126.33L8.03 126.56L8.19 126.64L8.57 126.82C8.87 126.97 9.18 127.1 9.5 127.23H9.6L10.02 127.39C10.5471 127.575 11.0847 127.728 11.63 127.85L12.17 127.96C12.3482 128 12.5285 128.03 12.71 128.05H12.9L13.55 128.12L14.25 128.17H14.95H45V120.67C45 118.681 44.2098 116.773 42.8033 115.367C41.3968 113.96 39.4891 113.17 37.5 113.17H30C30.0026 111.2 29.6152 109.249 28.86 107.43C28.1048 105.611 26.9968 103.959 25.6 102.57L25.17 102.17L24.37 101.47C24.07 101.23 23.75 100.98 23.37 100.75L22.37 100.14L21.77 99.82C21.55 99.7 21.33 99.6 21.1 99.5C25.0237 98.2948 29.153 97.9076 33.2323 98.3624C37.3117 98.8172 41.2543 100.104 44.8162 102.144C48.3782 104.184 51.4837 106.933 53.9406 110.221C56.3975 113.509 58.1535 117.266 59.1 121.26C63.9989 117.816 67.9998 113.247 70.7666 107.936C73.5333 102.625 74.9851 96.7282 75 90.74V53.24C78.9782 53.24 82.7936 51.6596 85.6066 48.8466C88.4197 46.0336 90 42.2182 90 38.24V30.74C90.0008 29.7552 89.8068 28.7799 89.4292 27.8703C89.0517 26.9607 88.498 26.1348 87.8 25.44ZM67.4 34.24C67.4348 34.7731 67.3555 35.3074 67.1676 35.8075C66.9796 36.3075 66.6873 36.7618 66.31 37.14C65.7782 37.6638 65.1053 38.0213 64.3736 38.1687C63.6419 38.3161 62.8831 38.247 62.19 37.97C61.4601 37.676 60.8448 37.154 60.4357 36.4819C60.0267 35.8097 59.8458 35.0233 59.92 34.24H67.4Z" fill="white"/>
<path d="M67.63 8.23999H67.37C63.2997 8.23999 60 11.5397 60 15.61V15.87C60 19.9403 63.2997 23.24 67.37 23.24H67.63C71.7003 23.24 75 19.9403 75 15.87V15.61C75 11.5397 71.7003 8.23999 67.63 8.23999Z" fill="#FB8500"/>
<path d="M77.15 8.3H67C66.9997 7.17578 67.5113 6.09616 68.4254 5.29242C69.3394 4.48868 70.5831 4.02475 71.89 4.00002C73.2419 3.99649 74.5432 4.44156 75.523 5.24255C76.5029 6.04355 77.0856 7.13872 77.15 8.3Z" fill="#17AA2B"/>
<path d="M74.1896 2.13263L66.9996 8.29146C66.1223 7.46275 65.6505 6.37556 65.6822 5.2558C65.7138 4.13603 66.2465 3.0698 67.1696 2.27866C68.0916 1.48072 69.337 1.01995 70.6454 0.992733C71.9538 0.965516 73.2238 1.37397 74.1896 2.13263Z" fill="#1AD33C"/>
</svg>
